<svg id="Capa_1" enable-background="new 0 0 497 497" height="512" viewBox="0 0 497 497" width="512" xmlns="http://www.w3.org/2000/svg"><g><g><path d="m105.305 461.627c-3.892 15.148 5.233 30.583 20.381 34.475 2.364.607 4.734.898 7.067.898 12.616 0 24.123-8.495 27.408-21.279l13.741-53.479-54.766-14.445z" fill="#5fd9b3"/><path d="m276.103 398.684-53.689 18.038 18.75 55.206c4.005 11.791 15.015 19.219 26.812 19.219 3.02 0 6.092-.487 9.11-1.512 14.809-5.03 22.737-21.113 17.707-35.922z" fill="#5fd9b3"/><path d="m19.941 345.17c-14.938 4.631-23.295 20.496-18.664 35.435 3.766 12.147 14.957 19.941 27.04 19.941 2.777 0 5.602-.412 8.394-1.277l55.202-17.113-17.649-53.826z" fill="#00ce8e"/><path d="m361.018 334.153-41.446 38.602 39.627 42.762c5.581 6.022 13.168 9.07 20.778 9.07 6.886 0 13.793-2.498 19.242-7.548 11.471-10.631 12.153-28.549 1.522-40.02z" fill="#5fd9b3"/><path d="m25.975 261.784 52.267 37.806 31.671-46.993-50.744-36.704c-12.673-9.166-30.376-6.323-39.543 6.349-9.166 12.672-6.324 30.375 6.349 39.542z" fill="#00ce8e"/><path d="m461.2 264.64-50.223-21.308-22.486 51.985 50.587 21.463c3.61 1.532 7.359 2.257 11.048 2.257 11.024 0 21.506-6.478 26.083-17.266 6.108-14.398-.612-31.022-15.009-37.131z" fill="#5fd9b3"/><path d="m136.068 150.536c-12.804 8.982-15.901 26.644-6.919 39.447l29.586 42.172 55.349-19.723-38.57-54.977c-8.982-12.804-26.642-15.901-39.446-6.919z" fill="#00ce8e"/><path d="m468.682 147.142c-.013 0-.029 0-.042 0l-49.583.073.513 56.637 49.153-.072c15.64-.023 28.301-12.72 28.278-28.361-.024-15.626-12.698-28.277-28.319-28.277z" fill="#5fd9b3"/><path d="m235.194 142.33 32.495-47.322-32.488-31.21c-11.279-10.835-29.206-10.475-40.041.803-10.835 11.279-10.476 29.206.803 40.041z" fill="#00ce8e"/><path d="m451.794 81.593c10.086-11.953 8.573-29.82-3.38-39.906-11.955-10.088-29.821-8.574-39.906 3.38l-35.345 41.887 39.092 41.497z" fill="#5fd9b3"/><path d="m350.995 28.319c0-15.64-12.679-28.319-28.319-28.319s-28.319 12.679-28.319 28.319v51.949l56.638-2.355z" fill="#00ce8e"/></g><g><path d="m334.852 60.022c-2.773-.208-5.573-.316-8.399-.316-61.32 0-110.383 49.848-110.383 110.382 0 25.608-20.832 46.441-46.439 46.441-60.963 0-110.383 49.421-110.383 110.384 0 18.025 4.322 35.04 11.984 50.067 18.251 35.798 55.461 60.316 98.399 60.316 147.296 0 267.205-119.83 267.205-267.208-.001-58.136-44.945-105.774-101.984-110.066z" fill="#5fd9b3"/><path d="m334.852 60.022c.007.014.013.027 0 0-64.83-4.875-118.782 46.542-118.782 110.066 0 25.683-20.583 46.481-46.266 46.441-61.043-.094-110.556 49.364-110.556 110.384 0 18.025 4.322 35.04 11.984 50.067 9.843 19.307 25.208 35.323 44.005 45.991 7.342-28.574 28.268-51.718 55.973-61.857 86.828-31.775 152.722-107.388 170.712-199.93 6.146-31.617 20.314-61.126 41.087-85.742l.001-.001c-14.26-8.523-30.679-14.091-48.158-15.419z" fill="#00ce8e"/></g><g><g><g><ellipse cx="248.725" cy="161.266" fill="#ff8e9e" rx="23.377" ry="29.355" transform="matrix(.259 -.966 .966 .259 28.58 359.778)"/></g><g><ellipse cx="402.417" cy="202.447" fill="#ff8e9e" rx="23.377" ry="29.355" transform="matrix(.259 -.966 .966 .259 102.713 538.753)"/></g></g></g><g fill="#313d40"><path d="m276.122 125.122c-4-1.068-8.113 1.302-9.186 5.303l-3.106 11.591c-1.072 4.001 1.302 8.114 5.303 9.186.65.174 1.303.257 1.946.257 3.311 0 6.342-2.21 7.24-5.561l3.106-11.591c1.072-4-1.302-8.113-5.303-9.185z"/><path d="m396.763 157.447c-3.998-1.067-8.114 1.302-9.186 5.303l-3.106 11.591c-1.072 4.001 1.302 8.114 5.303 9.186.65.174 1.303.257 1.946.257 3.311 0 6.342-2.21 7.24-5.561l3.106-11.591c1.072-4-1.302-8.112-5.303-9.185z"/><path d="m343.205 157.813c-3.447 2.319-7.717 3.034-11.718 1.962-3.999-1.071-7.34-3.826-9.166-7.558-1.821-3.722-6.314-5.262-10.033-3.44-3.721 1.821-5.261 6.313-3.44 10.033 3.732 7.628 10.569 13.261 18.757 15.455 2.498.669 5.047.999 7.583.999 5.778 0 11.492-1.71 16.389-5.003 3.437-2.312 4.349-6.973 2.037-10.409-2.313-3.439-6.973-4.351-10.409-2.039z"/></g></g></svg>